<svg xmlns="http://www.w3.org/2000/svg" xmlns:xlink="http://www.w3.org/1999/xlink" viewBox="0 0 1270 1882.5"><defs><style>.cls-1{fill:none;stroke-miterlimit:10;stroke-width:100px;stroke:url(#linear-gradient);}</style><linearGradient id="linear-gradient" x1="775.27" y1="1770.34" x2="459.01" y2="-23.31" gradientUnits="userSpaceOnUse"><stop offset="0" stop-color="#ffe66a"/><stop offset="0.17" stop-color="#ffc255"/><stop offset="0.3" stop-color="#a66a1a"/><stop offset="0.4" stop-color="#ffd25e"/><stop offset="0.47" stop-color="#ffc959"/><stop offset="0.51" stop-color="#c88d38"/><stop offset="0.57" stop-color="#fcc166"/><stop offset="0.66" stop-color="#ffd05d"/><stop offset="0.72" stop-color="#bc7921"/><stop offset="0.8" stop-color="#af7322"/><stop offset="0.87" stop-color="#ffcf5d"/><stop offset="0.94" stop-color="#f9a32f"/><stop offset="1" stop-color="#f7931e"/></linearGradient></defs><g id="Layer_2" data-name="Layer 2"><g id="Layer_2-2" data-name="Layer 2"><path class="cls-1" d="M963,60.3c305,33,51.6,625.2-57,647C655.8,757.7,493.7-21.6,311,55.3,253,79.8,141.4,258.2,163.1,323.1,235,538,935,337.4,1072,604.3c58.1,113.3,6.7,294.8-100,348S687.2,939,572,761.3c-120.6-207.4-325.9-268.5-428-204-97.3,61.6-126.1,253.2-53,343,37.4,46.1,213.9,6.9,286,41,177.8,84.1,123.8,357.7,72,423-55,69.4-296.5-21.4-305-112-5.5-59,102.8-113.7,133-129,340.9-172.1,944.7,89.8,943,281-1.9,214-761.7,369.7-1090,429"/></g></g></svg>